<svg width="92" height="24" viewBox="0 0 92 24" fill="none" xmlns="http://www.w3.org/2000/svg">
<mask id="mask0_217_1069" style="mask-type:alpha" maskUnits="userSpaceOnUse" x="0" y="0" width="92" height="24">
<rect width="92" height="24" fill="#D9D9D9"/>
</mask>
<g mask="url(#mask0_217_1069)">
<rect width="92" height="24" fill="white"/>
<rect x="2.85098" y="-0.14901" width="24" height="24" fill="white"/>
<path d="M9.40191 7.46574C10.7513 7.46574 11.9472 6.59684 12.3642 5.3135C13.1469 2.90451 16.555 2.90451 17.3378 5.3135C17.7547 6.59684 18.9507 7.46574 20.3001 7.46574C22.833 7.46574 23.8862 10.707 21.837 12.1959C20.7453 12.989 20.2885 14.3949 20.7055 15.6782C21.4882 18.0872 18.731 20.0905 16.6818 18.6016C15.5901 17.8085 14.1119 17.8085 13.0202 18.6016C10.971 20.0905 8.21377 18.0872 8.9965 15.6782C9.41349 14.3949 8.95668 12.989 7.865 12.1959C5.81579 10.707 6.86895 7.46574 9.40191 7.46574Z" fill="white" stroke="#6D28D9" stroke-width="0.5"/>
<path d="M12.832 5.15423C13.9455 5.91652 15.4231 5.87517 16.4922 5.05178C18.499 3.5062 21.3111 5.43149 20.5961 7.86144C20.2152 9.15595 20.7111 10.5485 21.8246 11.3108C23.9146 12.7417 22.9526 16.0112 20.4206 16.0821C19.0718 16.1198 17.9006 17.0218 17.5197 18.3163C16.8047 20.7463 13.3979 20.8416 12.5481 18.4555C12.0954 17.1843 10.8756 16.3492 9.52674 16.387C6.99477 16.4578 5.85134 13.2473 7.8581 11.7017C8.92716 10.8783 9.34445 9.4602 8.89172 8.18903C8.04191 5.80288 10.742 3.7233 12.832 5.15423Z" fill="white" stroke="#6D28D9" stroke-width="0.5"/>
<path d="M15.7441 7.0868C17.2099 5.95789 19.2639 7.36415 18.7416 9.139V9.139C18.5081 9.93274 18.8122 10.7866 19.4949 11.254V11.254C21.0215 12.2992 20.3188 14.6872 18.4694 14.739V14.739C17.6423 14.7621 16.9242 15.3152 16.6907 16.1089V16.1089C16.1684 17.8838 13.6801 17.9534 13.0594 16.2106V16.2106C12.7818 15.4311 12.0339 14.9191 11.2068 14.9422V14.9422C9.35744 14.994 8.52228 12.649 9.98803 11.5201V11.5201C10.6435 11.0152 10.8994 10.1457 10.6218 9.36626V9.36626C10.0011 7.6234 11.9732 6.10446 13.4998 7.14962V7.14962C14.1826 7.61703 15.0886 7.59167 15.7441 7.0868V7.0868Z" fill="#6D28D9"/>
<path opacity="0.2" d="M15.574 8.12088C16.7277 7.23227 18.3445 8.33918 17.9334 9.73624V9.73624C17.7496 10.361 17.989 11.0331 18.5264 11.4011V11.4011C19.728 12.2237 19.1749 14.1035 17.7192 14.1442V14.1442C17.0681 14.1624 16.5029 14.5978 16.3191 15.2226V15.2226C15.908 16.6196 13.9493 16.6744 13.4607 15.3026V15.3026C13.2422 14.689 12.6535 14.286 12.0025 14.3042V14.3042C10.5468 14.345 9.88938 12.4991 11.0431 11.6105V11.6105C11.5591 11.2131 11.7605 10.5287 11.542 9.91513V9.91513C11.0534 8.54325 12.6058 7.34763 13.8074 8.17032V8.17032C14.3448 8.53824 15.058 8.51828 15.574 8.12088V8.12088Z" fill="#6D28D9"/>
<path d="M11.851 13.5553C11.851 13.1663 12.1663 12.851 12.5553 12.851H17.1467C17.5357 12.851 17.851 13.1663 17.851 13.5553V13.5553C17.851 13.7961 17.728 14.0202 17.5248 14.1495L15.9247 15.1677C15.2696 15.5846 14.4324 15.5846 13.7772 15.1677L12.1772 14.1495C11.974 14.0202 11.851 13.7961 11.851 13.5553V13.5553Z" fill="white"/>
<circle cx="12.851" cy="9.85099" r="1" fill="white"/>
<circle cx="16.851" cy="9.85099" r="1" fill="white"/>
<path d="M33.148 16L31.3 12.736H30.508V16H28.828V7.624H31.972C32.62 7.624 33.172 7.74 33.628 7.972C34.084 8.196 34.424 8.504 34.648 8.896C34.88 9.28 34.996 9.712 34.996 10.192C34.996 10.744 34.836 11.244 34.516 11.692C34.196 12.132 33.72 12.436 33.088 12.604L35.092 16H33.148ZM30.508 11.476H31.912C32.368 11.476 32.708 11.368 32.932 11.152C33.156 10.928 33.268 10.62 33.268 10.228C33.268 9.844 33.156 9.548 32.932 9.34C32.708 9.124 32.368 9.016 31.912 9.016H30.508V11.476ZM42.6955 12.532C42.6955 12.772 42.6795 12.988 42.6475 13.18H37.7875C37.8275 13.66 37.9955 14.036 38.2915 14.308C38.5875 14.58 38.9515 14.716 39.3835 14.716C40.0075 14.716 40.4515 14.448 40.7155 13.912H42.5275C42.3355 14.552 41.9675 15.08 41.4235 15.496C40.8795 15.904 40.2115 16.108 39.4195 16.108C38.7795 16.108 38.2035 15.968 37.6915 15.688C37.1875 15.4 36.7915 14.996 36.5035 14.476C36.2235 13.956 36.0835 13.356 36.0835 12.676C36.0835 11.988 36.2235 11.384 36.5035 10.864C36.7835 10.344 37.1755 9.944 37.6795 9.664C38.1835 9.384 38.7635 9.244 39.4195 9.244C40.0515 9.244 40.6155 9.38 41.1115 9.652C41.6155 9.924 42.0035 10.312 42.2755 10.816C42.5555 11.312 42.6955 11.884 42.6955 12.532ZM40.9555 12.052C40.9475 11.62 40.7915 11.276 40.4875 11.02C40.1835 10.756 39.8115 10.624 39.3715 10.624C38.9555 10.624 38.6035 10.752 38.3155 11.008C38.0355 11.256 37.8635 11.604 37.7995 12.052H40.9555ZM43.4897 12.676C43.4897 11.988 43.6298 11.388 43.9098 10.876C44.1898 10.356 44.5778 9.956 45.0738 9.676C45.5698 9.388 46.1378 9.244 46.7778 9.244C47.6018 9.244 48.2818 9.452 48.8178 9.868C49.3618 10.276 49.7258 10.852 49.9098 11.596H48.0978C48.0018 11.308 47.8378 11.084 47.6058 10.924C47.3818 10.756 47.1018 10.672 46.7658 10.672C46.2858 10.672 45.9058 10.848 45.6258 11.2C45.3458 11.544 45.2058 12.036 45.2058 12.676C45.2058 13.308 45.3458 13.8 45.6258 14.152C45.9058 14.496 46.2858 14.668 46.7658 14.668C47.4458 14.668 47.8898 14.364 48.0978 13.756H49.9098C49.7258 14.476 49.3618 15.048 48.8178 15.472C48.2738 15.896 47.5938 16.108 46.7778 16.108C46.1378 16.108 45.5698 15.968 45.0738 15.688C44.5778 15.4 44.1898 15 43.9098 14.488C43.6298 13.968 43.4897 13.364 43.4897 12.676ZM54.0925 16.108C53.4525 16.108 52.8765 15.968 52.3645 15.688C51.8525 15.4 51.4485 14.996 51.1525 14.476C50.8645 13.956 50.7205 13.356 50.7205 12.676C50.7205 11.996 50.8685 11.396 51.1645 10.876C51.4685 10.356 51.8805 9.956 52.4005 9.676C52.9205 9.388 53.5005 9.244 54.1405 9.244C54.7805 9.244 55.3605 9.388 55.8805 9.676C56.4005 9.956 56.8085 10.356 57.1045 10.876C57.4085 11.396 57.5605 11.996 57.5605 12.676C57.5605 13.356 57.4045 13.956 57.0925 14.476C56.7885 14.996 56.3725 15.4 55.8445 15.688C55.3245 15.968 54.7405 16.108 54.0925 16.108ZM54.0925 14.644C54.3965 14.644 54.6805 14.572 54.9445 14.428C55.2165 14.276 55.4325 14.052 55.5925 13.756C55.7525 13.46 55.8325 13.1 55.8325 12.676C55.8325 12.044 55.6645 11.56 55.3285 11.224C55.0005 10.88 54.5965 10.708 54.1165 10.708C53.6365 10.708 53.2325 10.88 52.9045 11.224C52.5845 11.56 52.4245 12.044 52.4245 12.676C52.4245 13.308 52.5805 13.796 52.8925 14.14C53.2125 14.476 53.6125 14.644 54.0925 14.644ZM67.0488 9.256C67.8648 9.256 68.5208 9.508 69.0168 10.012C69.5208 10.508 69.7728 11.204 69.7728 12.1V16H68.0928V12.328C68.0928 11.808 67.9608 11.412 67.6968 11.14C67.4328 10.86 67.0728 10.72 66.6168 10.72C66.1608 10.72 65.7968 10.86 65.5248 11.14C65.2608 11.412 65.1288 11.808 65.1288 12.328V16H63.4488V12.328C63.4488 11.808 63.3168 11.412 63.0528 11.14C62.7888 10.86 62.4288 10.72 61.9728 10.72C61.5088 10.72 61.1408 10.86 60.8688 11.14C60.6048 11.412 60.4728 11.808 60.4728 12.328V16H58.7928V9.352H60.4728V10.156C60.6888 9.876 60.9648 9.656 61.3008 9.496C61.6448 9.336 62.0208 9.256 62.4288 9.256C62.9488 9.256 63.4128 9.368 63.8208 9.592C64.2288 9.808 64.5448 10.12 64.7688 10.528C64.9848 10.144 65.2968 9.836 65.7048 9.604C66.1208 9.372 66.5688 9.256 67.0488 9.256ZM75.0511 9.256C75.8431 9.256 76.4831 9.508 76.9711 10.012C77.4591 10.508 77.7031 11.204 77.7031 12.1V16H76.0231V12.328C76.0231 11.8 75.8911 11.396 75.6271 11.116C75.3631 10.828 75.0031 10.684 74.5471 10.684C74.0831 10.684 73.7151 10.828 73.4431 11.116C73.1791 11.396 73.0471 11.8 73.0471 12.328V16H71.3671V9.352H73.0471V10.18C73.2711 9.892 73.5551 9.668 73.8991 9.508C74.2511 9.34 74.6351 9.256 75.0511 9.256ZM78.8687 12.652C78.8687 11.98 79.0007 11.384 79.2647 10.864C79.5367 10.344 79.9047 9.944 80.3687 9.664C80.8327 9.384 81.3487 9.244 81.9167 9.244C82.3487 9.244 82.7607 9.34 83.1527 9.532C83.5447 9.716 83.8567 9.964 84.0887 10.276V7.12H85.7927V16H84.0887V15.016C83.8807 15.344 83.5887 15.608 83.2127 15.808C82.8367 16.008 82.4007 16.108 81.9047 16.108C81.3447 16.108 80.8327 15.964 80.3687 15.676C79.9047 15.388 79.5367 14.984 79.2647 14.464C79.0007 13.936 78.8687 13.332 78.8687 12.652ZM84.1007 12.676C84.1007 12.268 84.0207 11.92 83.8607 11.632C83.7007 11.336 83.4847 11.112 83.2127 10.96C82.9407 10.8 82.6487 10.72 82.3367 10.72C82.0247 10.72 81.7367 10.796 81.4727 10.948C81.2087 11.1 80.9927 11.324 80.8247 11.62C80.6647 11.908 80.5847 12.252 80.5847 12.652C80.5847 13.052 80.6647 13.404 80.8247 13.708C80.9927 14.004 81.2087 14.232 81.4727 14.392C81.7447 14.552 82.0327 14.632 82.3367 14.632C82.6487 14.632 82.9407 14.556 83.2127 14.404C83.4847 14.244 83.7007 14.02 83.8607 13.732C84.0207 13.436 84.1007 13.084 84.1007 12.676Z" fill="#6D28D9"/>
</g>
</svg>
