<svg width="78" height="20" viewBox="0 0 78 20" fill="none" xmlns="http://www.w3.org/2000/svg">
<rect width="78" height="20" fill="white"/>
<path d="M24.4773 6.59801V5.27273H31.4403V6.59801H28.7429V14H27.1747V6.59801H24.4773ZM31.7948 14V7.45455H33.2905V8.54545H33.3587C33.478 8.16761 33.6826 7.87642 33.9724 7.67188C34.265 7.46449 34.5988 7.3608 34.9738 7.3608C35.059 7.3608 35.1542 7.36506 35.2593 7.37358C35.3672 7.37926 35.4567 7.3892 35.5278 7.40341V8.82244C35.4624 8.79972 35.3587 8.77983 35.2167 8.76278C35.0775 8.7429 34.9425 8.73295 34.8118 8.73295C34.5306 8.73295 34.2778 8.79403 34.0533 8.91619C33.8317 9.03551 33.657 9.2017 33.5292 9.41477C33.4013 9.62784 33.3374 9.87358 33.3374 10.152V14H31.7948ZM38.0789 14.1321C37.6642 14.1321 37.2906 14.0582 36.9582 13.9105C36.6287 13.7599 36.3673 13.5384 36.1741 13.2457C35.9838 12.9531 35.8886 12.5923 35.8886 12.1634C35.8886 11.794 35.9568 11.4886 36.0932 11.2472C36.2295 11.0057 36.4156 10.8125 36.6514 10.6676C36.8872 10.5227 37.1528 10.4134 37.4483 10.3395C37.7466 10.2628 38.0548 10.2074 38.373 10.1733C38.7565 10.1335 39.0676 10.098 39.3062 10.0668C39.5449 10.0327 39.7182 9.98153 39.8261 9.91335C39.9369 9.84233 39.9923 9.73295 39.9923 9.58523V9.55966C39.9923 9.23864 39.8971 8.99006 39.7068 8.81392C39.5164 8.63778 39.2423 8.54972 38.8843 8.54972C38.5065 8.54972 38.2068 8.6321 37.9852 8.79688C37.7664 8.96165 37.6187 9.15625 37.542 9.38068L36.1017 9.17614C36.2153 8.77841 36.4028 8.44602 36.6642 8.17898C36.9255 7.90909 37.2451 7.70739 37.623 7.57386C38.0008 7.4375 38.4184 7.36932 38.8758 7.36932C39.1912 7.36932 39.5051 7.40625 39.8176 7.48011C40.1301 7.55398 40.4156 7.67614 40.6741 7.84659C40.9326 8.0142 41.14 8.2429 41.2963 8.53267C41.4554 8.82244 41.5349 9.18466 41.5349 9.61932V14H40.052V13.1009H40.0008C39.9071 13.2827 39.775 13.4531 39.6045 13.6122C39.4369 13.7685 39.2253 13.8949 38.9696 13.9915C38.7167 14.0852 38.4199 14.1321 38.0789 14.1321ZM38.4795 12.9986C38.7892 12.9986 39.0576 12.9375 39.2849 12.8153C39.5122 12.6903 39.6869 12.5256 39.8091 12.321C39.9341 12.1165 39.9966 11.8935 39.9966 11.652V10.8807C39.9483 10.9205 39.8659 10.9574 39.7494 10.9915C39.6358 11.0256 39.5079 11.0554 39.3659 11.081C39.2238 11.1065 39.0832 11.1293 38.944 11.1491C38.8048 11.169 38.6841 11.1861 38.5818 11.2003C38.3517 11.2315 38.1457 11.2827 37.9639 11.3537C37.7821 11.4247 37.6386 11.5241 37.5335 11.652C37.4284 11.777 37.3758 11.9389 37.3758 12.1378C37.3758 12.4219 37.4795 12.6364 37.6869 12.7812C37.8943 12.9261 38.1585 12.9986 38.4795 12.9986ZM45.7012 14.1278C45.0478 14.1278 44.4867 13.9844 44.0179 13.6974C43.552 13.4105 43.1926 13.0142 42.9398 12.5085C42.6898 12 42.5648 11.4148 42.5648 10.7528C42.5648 10.0881 42.6926 9.50142 42.9483 8.9929C43.204 8.48153 43.5648 8.08381 44.0307 7.79972C44.4995 7.51278 45.0534 7.36932 45.6926 7.36932C46.2239 7.36932 46.6941 7.46733 47.1032 7.66335C47.5151 7.85653 47.8432 8.13068 48.0875 8.4858C48.3318 8.83807 48.4711 9.25 48.5051 9.72159H47.0307C46.9711 9.40625 46.829 9.14347 46.6046 8.93324C46.383 8.72017 46.0861 8.61364 45.7139 8.61364C45.3986 8.61364 45.1216 8.69886 44.883 8.86932C44.6443 9.03693 44.4583 9.27841 44.3247 9.59375C44.1941 9.90909 44.1287 10.2869 44.1287 10.7273C44.1287 11.1733 44.1941 11.5568 44.3247 11.8778C44.4554 12.196 44.6387 12.4418 44.8745 12.6151C45.1131 12.7855 45.3929 12.8707 45.7139 12.8707C45.9412 12.8707 46.1443 12.8281 46.3233 12.7429C46.5051 12.6548 46.6571 12.5284 46.7793 12.3636C46.9014 12.1989 46.9853 11.9986 47.0307 11.7628H48.5051C48.4682 12.2259 48.3318 12.6364 48.0961 12.9943C47.8603 13.3494 47.5392 13.6278 47.133 13.8295C46.7267 14.0284 46.2495 14.1278 45.7012 14.1278ZM50.9381 11.946L50.9338 10.0838H51.181L53.5333 7.45455H55.3358L52.4423 10.6761H52.1227L50.9381 11.946ZM49.5318 14V5.27273H51.0744V14H49.5318ZM53.6398 14L51.5091 11.0213L52.5489 9.93466L55.485 14H53.6398ZM56.192 14V5.27273H57.7347V8.53693H57.7986C57.8781 8.37784 57.9903 8.20881 58.1352 8.02983C58.2801 7.84801 58.4761 7.69318 58.7233 7.56534C58.9705 7.43466 59.2858 7.36932 59.6693 7.36932C60.175 7.36932 60.631 7.49858 61.0372 7.7571C61.4463 8.01278 61.7702 8.39205 62.0088 8.89489C62.2503 9.39489 62.371 10.0085 62.371 10.7358C62.371 11.4545 62.2531 12.0653 62.0173 12.5682C61.7815 13.071 61.4605 13.4545 61.0543 13.7188C60.648 13.983 60.1878 14.1151 59.6736 14.1151C59.2986 14.1151 58.9875 14.0526 58.7403 13.9276C58.4932 13.8026 58.2943 13.652 58.1437 13.4759C57.996 13.2969 57.881 13.1278 57.7986 12.9688H57.7091V14H56.192ZM57.7048 10.7273C57.7048 11.1506 57.7645 11.5213 57.8838 11.8395C58.006 12.1577 58.1807 12.4062 58.408 12.5852C58.6381 12.7614 58.9165 12.8494 59.2432 12.8494C59.5841 12.8494 59.8696 12.7585 60.0997 12.5767C60.3298 12.392 60.5031 12.1406 60.6196 11.8224C60.7389 11.5014 60.7986 11.1364 60.7986 10.7273C60.7986 10.321 60.7403 9.96023 60.6239 9.64489C60.5074 9.32955 60.3341 9.08239 60.104 8.90341C59.8739 8.72443 59.5869 8.63494 59.2432 8.63494C58.9136 8.63494 58.6338 8.72159 58.4037 8.89489C58.1736 9.06818 57.9989 9.31108 57.8795 9.62358C57.7631 9.93608 57.7048 10.304 57.7048 10.7273ZM63.4425 14V7.45455H64.9851V14H63.4425ZM64.218 6.52557C63.9737 6.52557 63.7635 6.4446 63.5873 6.28267C63.4112 6.1179 63.3231 5.92045 63.3231 5.69034C63.3231 5.45739 63.4112 5.25994 63.5873 5.09801C63.7635 4.93324 63.9737 4.85085 64.218 4.85085C64.4652 4.85085 64.6754 4.93324 64.8487 5.09801C65.0248 5.25994 65.1129 5.45739 65.1129 5.69034C65.1129 5.92045 65.0248 6.1179 64.8487 6.28267C64.6754 6.4446 64.4652 6.52557 64.218 6.52557ZM69.5998 7.45455V8.64773H65.837V7.45455H69.5998ZM66.766 5.88636H68.3086V12.0312C68.3086 12.2386 68.3399 12.3977 68.4024 12.5085C68.4677 12.6165 68.553 12.6903 68.6581 12.7301C68.7632 12.7699 68.8797 12.7898 69.0075 12.7898C69.1041 12.7898 69.1922 12.7827 69.2717 12.7685C69.3541 12.7543 69.4166 12.7415 69.4592 12.7301L69.7191 13.9361C69.6368 13.9645 69.5189 13.9957 69.3655 14.0298C69.2149 14.0639 69.0302 14.0838 68.8115 14.0895C68.4251 14.1009 68.0771 14.0426 67.7674 13.9148C67.4578 13.7841 67.212 13.5824 67.0302 13.3097C66.8512 13.0369 66.7632 12.696 66.766 12.2869V5.88636Z" fill="#84CC16"/>
<circle cx="12" cy="10" r="8" fill="#65A30D"/>
<circle cx="12" cy="10" r="6" fill="#84CC16"/>
<circle cx="12" cy="10" r="4" fill="#A3E635"/>
<g filter="url(#filter0_d_403_398)">
<circle cx="12" cy="10" r="2" fill="#D9F99D"/>
</g>
<g filter="url(#filter1_d_403_398)">
<circle cx="12" cy="10" r="1" fill="#ECFCCB"/>
</g>
<defs>
<filter id="filter0_d_403_398" x="6" y="8" width="12" height="12" filterUnits="userSpaceOnUse" color-interpolation-filters="sRGB">
<feFlood flood-opacity="0" result="BackgroundImageFix"/>
<feColorMatrix in="SourceAlpha" type="matrix" values="0 0 0 0 0 0 0 0 0 0 0 0 0 0 0 0 0 0 127 0" result="hardAlpha"/>
<feOffset dy="4"/>
<feGaussianBlur stdDeviation="2"/>
<feComposite in2="hardAlpha" operator="out"/>
<feColorMatrix type="matrix" values="0 0 0 0 0 0 0 0 0 0 0 0 0 0 0 0 0 0 0.25 0"/>
<feBlend mode="normal" in2="BackgroundImageFix" result="effect1_dropShadow_403_398"/>
<feBlend mode="normal" in="SourceGraphic" in2="effect1_dropShadow_403_398" result="shape"/>
</filter>
<filter id="filter1_d_403_398" x="7" y="9" width="10" height="10" filterUnits="userSpaceOnUse" color-interpolation-filters="sRGB">
<feFlood flood-opacity="0" result="BackgroundImageFix"/>
<feColorMatrix in="SourceAlpha" type="matrix" values="0 0 0 0 0 0 0 0 0 0 0 0 0 0 0 0 0 0 127 0" result="hardAlpha"/>
<feOffset dy="4"/>
<feGaussianBlur stdDeviation="2"/>
<feComposite in2="hardAlpha" operator="out"/>
<feColorMatrix type="matrix" values="0 0 0 0 0 0 0 0 0 0 0 0 0 0 0 0 0 0 0.25 0"/>
<feBlend mode="normal" in2="BackgroundImageFix" result="effect1_dropShadow_403_398"/>
<feBlend mode="normal" in="SourceGraphic" in2="effect1_dropShadow_403_398" result="shape"/>
</filter>
</defs>
</svg>
